<svg xmlns="http://www.w3.org/2000/svg" viewBox="0 0 677 232" aria-label="apollo-logo" class="css-z1c7hf"><path d="M380.384 135.951a43.6 43.6 0 01-16.701 17.311q-10.726 6.248-24.439 6.246-13.711-.001-24.438-6.246a43.55 43.55 0 01-16.701-17.311q-5.976-11.064-5.974-24.777t5.974-24.779a43.6 43.6 0 0116.701-17.31q10.724-6.244 24.438-6.246 13.716-.003 24.439 6.246a43.63 43.63 0 0116.701 17.31q5.973 11.068 5.974 24.779 0 13.715-5.974 24.777m-64.22-8.757q3.259 7.062 9.233 11.065 5.973 4.005 13.849 4.006 7.739 0 13.712-4.006 5.975-4.005 9.233-11.065t3.258-16.02q0-8.962-3.258-16.021t-9.233-11.066q-5.973-4.006-13.712-4.005-7.877 0-13.849 4.005t-9.233 11.066q-3.258 7.06-3.258 16.021 0 8.96 3.258 16.02m354.773 8.757a43.6 43.6 0 01-16.701 17.311q-10.726 6.248-24.438 6.246-13.713-.001-24.439-6.246a43.56 43.56 0 01-16.701-17.311q-5.976-11.064-5.974-24.777t5.974-24.779a43.6 43.6 0 0116.701-17.31q10.723-6.244 24.439-6.246t24.438 6.246a43.63 43.63 0 0116.701 17.31q5.973 11.068 5.974 24.779 0 13.715-5.974 24.777m-64.219-8.757q3.258 7.062 9.232 11.065 5.974 4.005 13.849 4.006 7.738 0 13.713-4.006 5.973-4.005 9.232-11.065t3.258-16.02q0-8.962-3.258-16.021t-9.232-11.066-13.713-4.005q-7.876 0-13.849 4.005t-9.232 11.066-3.259 16.021q0 8.96 3.259 16.02M158.1 142.017l-4.483-12.738-5.902-16.773-4.27-12.138-5.59-15.886-6.494-18.452H99.864l-5.027 14.288-4.482 12.738-22.263 63.263h20.773l6.517-18.465h31.502l-5.59-15.887h-20.345l4.27-12.138 8.919-25.347 1.475-4.195 1.475 4.195 25.266 71.823.006.015h20.773zm103.893-67.909q7.059 8.08 7.059 20.84 0 13.443-6.992 21.656-6.992 8.215-21.655 8.215h-27.154v31.498h-20.774V66.03h47.928q14.527 0 21.588 8.078m-28.104 34.69q7.194 0 10.454-3.666t3.258-10.047q0-13.035-13.577-13.034h-20.773v26.747zM434.986 66.03v73.86h42.225v16.428h-62.998V66.03zm85.965 0v73.86h42.224v16.428h-62.997V66.03z"></path><path d="M179.013 36.657a12.043 12.043 0 0011.492-15.648 12.04 12.04 0 00-18.374-6.273A115.64 115.64 0 00.138 121.292a115.65 115.65 0 0064.487 98.129 115.64 115.64 0 00117.086-8.87 4.7 4.7 0 001.275-1.327 4.729 4.729 0 00.633-3.554 4.713 4.713 0 00-5.619-3.593 4.7 4.7 0 00-1.686.738 106.2 106.2 0 01-107.405 8.17 106.195 106.195 0 1198.208-188.243 12.04 12.04 0 002.743 9.697 12.05 12.05 0 009.153 4.218"></path></svg>